<svg width="515" height="124" viewBox="0 0 515 124" fill="none" xmlns="http://www.w3.org/2000/svg">
<path d="M0 93.8557H20.4659V96.6969H11.9591V115.503H8.50677V96.6969H0V93.8557Z" fill="#EEF5FF"/>
<path d="M49.2822 103.79V105.53H33.146C33.2986 107.978 34.0234 109.846 35.3204 111.135C36.6301 112.41 38.4484 113.048 40.7754 113.048C42.1233 113.048 43.4266 112.881 44.6855 112.546C45.957 112.211 47.2159 111.708 48.462 111.038V114.401C47.2032 114.942 45.9125 115.355 44.5901 115.638C43.2677 115.922 41.9262 116.063 40.5656 116.063C37.1578 116.063 34.4557 115.058 32.4594 113.048C30.4757 111.038 29.4839 108.319 29.4839 104.892C29.4839 101.348 30.4248 98.5395 32.3068 96.465C34.2014 94.3776 36.7509 93.3339 39.9552 93.3339C42.829 93.3339 45.0987 94.2745 46.7645 96.1557C48.4429 98.0241 49.2822 100.569 49.2822 103.79ZM45.7726 102.747C45.7473 100.801 45.2068 99.2482 44.1514 98.0885C43.1087 96.9288 41.7227 96.349 39.9934 96.349C38.0352 96.349 36.4648 96.9095 35.2822 98.0305C34.1124 99.1515 33.4385 100.73 33.2604 102.766L45.7726 102.747Z" fill="#EEF5FF"/>
<path d="M64.1746 112.256V123.736H60.646V93.8557H64.1746V97.1414C64.9121 95.8529 65.8403 94.8994 66.9593 94.2809C68.091 93.6495 69.4389 93.3339 71.0029 93.3339C73.5969 93.3339 75.7013 94.3776 77.3162 96.465C78.9438 98.5524 79.7576 101.297 79.7576 104.699C79.7576 108.1 78.9438 110.845 77.3162 112.932C75.7013 115.02 73.5969 116.063 71.0029 116.063C69.4389 116.063 68.091 115.754 66.9593 115.136C65.8403 114.504 64.9121 113.544 64.1746 112.256ZM76.1146 104.699C76.1146 102.083 75.5805 100.034 74.5124 98.5524C73.457 97.0577 72.0011 96.3103 70.1446 96.3103C68.2881 96.3103 66.8258 97.0577 65.7577 98.5524C64.7023 100.034 64.1746 102.083 64.1746 104.699C64.1746 107.314 64.7023 109.369 65.7577 110.864C66.8258 112.346 68.2881 113.087 70.1446 113.087C72.0011 113.087 73.457 112.346 74.5124 110.864C75.5805 109.369 76.1146 107.314 76.1146 104.699Z" fill="#EEF5FF"/>
<path d="M91.1787 93.8557H96.3095L102.375 108.352L108.459 93.8557H113.552V115.503H110.023V97.2574L104.13 111.347H100.62L94.7073 97.2574V115.503H91.1787V93.8557Z" fill="#EEF5FF"/>
<path d="M126.499 93.8558H130.009V115.503H126.499V93.8558ZM126.499 85.4288H130.009V89.9322H126.499V85.4288Z" fill="#EEF5FF"/>
<path d="M142.937 93.8557H146.465V102.689H157.852V93.8557H161.381V115.503H157.852V105.53H146.465V115.503H142.937V93.8557Z" fill="#EEF5FF"/>
<path d="M182.644 96.349C180.762 96.349 179.274 97.0963 178.181 98.591C177.087 100.073 176.541 102.109 176.541 104.699C176.541 107.289 177.081 109.331 178.162 110.826C179.255 112.307 180.749 113.048 182.644 113.048C184.513 113.048 185.995 112.301 187.088 110.806C188.182 109.312 188.729 107.276 188.729 104.699C188.729 102.134 188.182 100.105 187.088 98.6104C185.995 97.1028 184.513 96.349 182.644 96.349ZM182.644 93.3339C185.696 93.3339 188.093 94.3389 189.835 96.349C191.577 98.3591 192.448 101.142 192.448 104.699C192.448 108.242 191.577 111.025 189.835 113.048C188.093 115.058 185.696 116.063 182.644 116.063C179.58 116.063 177.176 115.058 175.434 113.048C173.705 111.025 172.84 108.242 172.84 104.699C172.84 101.142 173.705 98.3591 175.434 96.349C177.176 94.3389 179.58 93.3339 182.644 93.3339Z" fill="#EEF5FF"/>
<path d="M207.359 105.53V112.662H212.356C213.959 112.662 215.179 112.359 216.018 111.753C216.858 111.135 217.277 110.246 217.277 109.086C217.277 107.926 216.858 107.044 216.018 106.438C215.179 105.833 213.959 105.53 212.356 105.53H207.359ZM207.359 96.6969V102.689H211.975C213.297 102.689 214.378 102.424 215.217 101.896C216.057 101.355 216.476 100.608 216.476 99.6541C216.476 98.7005 216.057 97.9725 215.217 97.47C214.378 96.9546 213.297 96.6969 211.975 96.6969H207.359ZM203.85 93.8557H212.204C214.709 93.8557 216.635 94.3196 217.983 95.2473C219.331 96.175 220.005 97.4958 220.005 99.2095C220.005 100.537 219.662 101.593 218.975 102.379C218.288 103.152 217.271 103.636 215.923 103.829C217.538 104.138 218.791 104.782 219.681 105.762C220.571 106.741 221.016 107.965 221.016 109.434C221.016 111.367 220.278 112.861 218.803 113.918C217.341 114.975 215.249 115.503 212.528 115.503H203.85V93.8557Z" fill="#EEF5FF"/>
<path d="M242.47 104.621C239.634 104.621 237.67 104.95 236.576 105.607C235.483 106.264 234.936 107.385 234.936 108.97C234.936 110.233 235.343 111.238 236.156 111.985C236.983 112.72 238.102 113.087 239.513 113.087C241.459 113.087 243.017 112.391 244.186 110.999C245.369 109.595 245.96 107.733 245.96 105.414V104.621H242.47ZM249.47 103.152V115.503H245.96V112.217C245.159 113.531 244.161 114.504 242.966 115.136C241.77 115.754 240.308 116.063 238.579 116.063C236.392 116.063 234.65 115.445 233.353 114.208C232.068 112.958 231.426 111.289 231.426 109.202C231.426 106.767 232.227 104.931 233.83 103.694C235.444 102.457 237.848 101.838 241.039 101.838H245.96V101.49C245.96 99.8538 245.426 98.591 244.358 97.7019C243.303 96.8 241.815 96.349 239.895 96.349C238.674 96.349 237.485 96.4972 236.328 96.7935C235.171 97.0899 234.058 97.5344 232.99 98.1272V94.8414C234.275 94.3389 235.521 93.9652 236.729 93.7204C237.937 93.4627 239.113 93.3339 240.257 93.3339C243.347 93.3339 245.655 94.1456 247.181 95.7692C248.707 97.3927 249.47 99.8538 249.47 103.152Z" fill="#EEF5FF"/>
<path d="M279.659 112.662H289.844V96.6969H282.463V99.4028C282.463 104.711 281.713 108.783 280.212 111.618L279.659 112.662ZM274.567 112.662C275.724 112.146 276.557 111.341 277.065 110.246C278.311 107.527 278.934 103.429 278.934 97.9532V93.8557H293.373V112.662H296.177V120.973H293.373V115.503H276.054V120.973H273.25V112.662H274.567Z" fill="#EEF5FF"/>
<path d="M315.914 96.349C314.032 96.349 312.544 97.0963 311.451 98.591C310.357 100.073 309.811 102.109 309.811 104.699C309.811 107.289 310.351 109.331 311.432 110.826C312.525 112.307 314.019 113.048 315.914 113.048C317.783 113.048 319.265 112.301 320.358 110.806C321.452 109.312 321.999 107.276 321.999 104.699C321.999 102.134 321.452 100.105 320.358 98.6104C319.265 97.1028 317.783 96.349 315.914 96.349ZM315.914 93.3339C318.966 93.3339 321.363 94.3389 323.105 96.349C324.847 98.3591 325.718 101.142 325.718 104.699C325.718 108.242 324.847 111.025 323.105 113.048C321.363 115.058 318.966 116.063 315.914 116.063C312.85 116.063 310.446 115.058 308.704 113.048C306.975 111.025 306.11 108.242 306.11 104.699C306.11 101.142 306.975 98.3591 308.704 96.349C310.446 94.3389 312.85 93.3339 315.914 93.3339Z" fill="#EEF5FF"/>
<path d="M355.564 93.8557V115.503H352.036V96.6969H340.649V115.503H337.12V93.8557H355.564Z" fill="#EEF5FF"/>
<path d="M376.827 96.349C374.945 96.349 373.458 97.0963 372.364 98.591C371.27 100.073 370.724 102.109 370.724 104.699C370.724 107.289 371.264 109.331 372.345 110.826C373.438 112.307 374.933 113.048 376.827 113.048C378.696 113.048 380.178 112.301 381.271 110.806C382.365 109.312 382.912 107.276 382.912 104.699C382.912 102.134 382.365 100.105 381.271 98.6104C380.178 97.1028 378.696 96.349 376.827 96.349ZM376.827 93.3339C379.879 93.3339 382.276 94.3389 384.018 96.349C385.76 98.3591 386.631 101.142 386.631 104.699C386.631 108.242 385.76 111.025 384.018 113.048C382.276 115.058 379.879 116.063 376.827 116.063C373.763 116.063 371.359 115.058 369.617 113.048C367.888 111.025 367.023 108.242 367.023 104.699C367.023 101.142 367.888 98.3591 369.617 96.349C371.359 94.3389 373.763 93.3339 376.827 93.3339Z" fill="#EEF5FF"/>
<path d="M398.033 93.8557H403.164L409.229 108.352L415.314 93.8557H420.406V115.503H416.878V97.2574L410.984 111.347H407.475L401.562 97.2574V115.503H398.033V93.8557Z" fill="#EEF5FF"/>
<path d="M441.631 96.349C439.749 96.349 438.262 97.0963 437.168 98.591C436.075 100.073 435.528 102.109 435.528 104.699C435.528 107.289 436.068 109.331 437.149 110.826C438.243 112.307 439.737 113.048 441.631 113.048C443.501 113.048 444.982 112.301 446.076 110.806C447.169 109.312 447.716 107.276 447.716 104.699C447.716 102.134 447.169 100.105 446.076 98.6104C444.982 97.1028 443.501 96.349 441.631 96.349ZM441.631 93.3339C444.683 93.3339 447.08 94.3389 448.822 96.349C450.564 98.3591 451.435 101.142 451.435 104.699C451.435 108.242 450.564 111.025 448.822 113.048C447.08 115.058 444.683 116.063 441.631 116.063C438.567 116.063 436.164 115.058 434.422 113.048C432.692 111.025 431.828 108.242 431.828 104.699C431.828 101.142 432.692 98.3591 434.422 96.349C436.164 94.3389 438.567 93.3339 441.631 93.3339Z" fill="#EEF5FF"/>
<path d="M462.837 115.503V93.8557H477.905V96.6969H466.366V115.503H462.837Z" fill="#EEF5FF"/>
<path d="M498.94 104.621C496.104 104.621 494.139 104.95 493.046 105.607C491.952 106.264 491.406 107.385 491.406 108.97C491.406 110.233 491.812 111.238 492.626 111.985C493.453 112.72 494.572 113.087 495.983 113.087C497.929 113.087 499.486 112.391 500.656 110.999C501.839 109.595 502.43 107.733 502.43 105.414V104.621H498.94ZM505.94 103.152V115.503H502.43V112.217C501.629 113.531 500.631 114.504 499.435 115.136C498.24 115.754 496.778 116.063 495.049 116.063C492.861 116.063 491.119 115.445 489.822 114.208C488.538 112.958 487.896 111.289 487.896 109.202C487.896 106.767 488.697 104.931 490.299 103.694C491.914 102.457 494.317 101.838 497.509 101.838H502.43V101.49C502.43 99.8538 501.896 98.591 500.828 97.7019C499.772 96.8 498.285 96.349 496.365 96.349C495.144 96.349 493.955 96.4972 492.798 96.7935C491.641 97.0899 490.528 97.5344 489.46 98.1272V94.8414C490.744 94.3389 491.99 93.9652 493.198 93.7204C494.406 93.4627 495.583 93.3339 496.727 93.3339C499.817 93.3339 502.125 94.1456 503.651 95.7692C505.177 97.3927 505.94 99.8538 505.94 103.152Z" fill="#EEF5FF"/>
<path d="M0 1.48743V63.8312H3.51563V17.5187L44.8242 63.8312H46.582V1.48743H43.0664V45.8406L3.51563 1.48743H0Z" fill="#EEF5FF"/>
<path d="M72.1016 63.8312H100.842V60.2687H78.3418C75.9688 60.2687 73.9473 58.2202 73.9473 55.8156V31.7687H94.6895V28.2062H73.9473V5.04993H100.842V1.48743H63.4004V55.014C63.4004 59.7343 67.4434 63.8312 72.1016 63.8312Z" fill="#EEF5FF"/>
<path d="M124.172 63.8312H152.912V60.2687H130.412C128.039 60.2687 126.018 58.2202 126.018 55.8156V31.7687H146.76V28.2062H126.018V5.04993H152.912V1.48743H115.471V55.014C115.471 59.7343 119.514 63.8312 124.172 63.8312Z" fill="#EEF5FF"/>
<path d="M167.542 63.8312H188.284C206.565 63.8312 219.924 51.8968 219.924 32.5702C219.924 14.1343 207.268 1.48743 188.284 1.48743H167.542V63.8312ZM178.088 60.2687V5.04993H188.284C200.5 5.04993 209.377 15.4702 209.377 32.5702C209.377 49.1359 201.028 60.2687 188.284 60.2687H178.088Z" fill="#EEF5FF"/>
<path d="M226.33 63.8312H230.725L246.809 17.964L264.211 59.7343C265.09 61.9609 267.902 63.8312 270.275 63.8312H277.307L251.818 1.48743H248.303L226.33 63.8312Z" fill="#EEF5FF"/>
<path d="M302.76 4.1593C309.44 4.1593 315.153 7.54368 318.932 13.4218L323.678 7.81086C318.317 3.26868 312.252 0.596802 304.166 0.596802C293.971 0.596802 286.676 7.89992 286.676 17.1624C286.676 39.339 319.372 35.6874 319.372 50.828C319.372 57.864 313.659 60.9812 306.452 60.9812C299.772 60.9812 292.829 57.4187 289.049 51.3624L284.303 57.1515C289.665 61.9609 296.784 64.7218 305.221 64.7218C314.977 64.7218 326.227 60.5359 326.227 47.7999C326.227 24.9999 292.916 28.1171 292.916 12.7093C292.916 8.96868 296.432 4.1593 302.76 4.1593Z" fill="#EEF5FF"/>
<path d="M355.346 4.1593C362.025 4.1593 367.738 7.54368 371.518 13.4218L376.264 7.81086C370.902 3.26868 364.838 0.596802 356.752 0.596802C346.557 0.596802 339.262 7.89992 339.262 17.1624C339.262 39.339 371.957 35.6874 371.957 50.828C371.957 57.864 366.244 60.9812 359.037 60.9812C352.357 60.9812 345.414 57.4187 341.635 51.3624L336.889 57.1515C342.25 61.9609 349.369 64.7218 357.807 64.7218C367.562 64.7218 378.812 60.5359 378.812 47.7999C378.812 24.9999 345.502 28.1171 345.502 12.7093C345.502 8.96868 349.018 4.1593 355.346 4.1593Z" fill="#EEF5FF"/>
<path d="M392.99 1.48743V63.8312H403.537V1.48743H392.99Z" fill="#EEF5FF"/>
<path d="M435.283 4.1593C441.962 4.1593 447.675 7.54368 451.455 13.4218L456.201 7.81086C450.839 3.26868 444.775 0.596802 436.689 0.596802C426.494 0.596802 419.199 7.89992 419.199 17.1624C419.199 39.339 451.894 35.6874 451.894 50.828C451.894 57.864 446.181 60.9812 438.974 60.9812C432.294 60.9812 425.351 57.4187 421.572 51.3624L416.826 57.1515C422.187 61.9609 429.306 64.7218 437.744 64.7218C447.499 64.7218 458.75 60.5359 458.75 47.7999C458.75 24.9999 425.439 28.1171 425.439 12.7093C425.439 8.96868 428.955 4.1593 435.283 4.1593Z" fill="#EEF5FF"/>
<path d="M485.583 63.8312H496.13V5.04993H514.236V1.48743H467.478V5.04993H485.583V63.8312Z" fill="#EEF5FF"/>
</svg>
